<svg width="342" height="38" viewBox="0 0 342 38" fill="none" xmlns="http://www.w3.org/2000/svg">
<path d="M19.7252 8.76148V36H12.9648V8.76148H0.625399V2.00108H32.524V8.76148H19.7252ZM72.8505 18.738C72.8505 16.8565 72.4786 15.2375 71.7347 13.881C70.9909 12.4808 70.0064 11.3431 68.7812 10.468C67.556 9.5491 66.1558 8.89275 64.5805 8.49894C63.0491 8.06138 61.4738 7.84259 59.8548 7.84259C58.1921 7.84259 56.5731 8.06138 54.9978 8.49894C53.4663 8.93651 52.088 9.61474 50.8628 10.5336C49.6814 11.4525 48.7187 12.6121 47.9749 14.0123C47.231 15.4125 46.8591 17.0752 46.8591 19.0005C46.8591 20.9258 47.231 22.5886 47.9749 23.9888C48.7187 25.389 49.7033 26.5486 50.9285 27.4675C52.1536 28.3863 53.532 29.0646 55.0635 29.5021C56.6387 29.9397 58.2577 30.1585 59.9205 30.1585C61.5394 30.1585 63.1147 29.9178 64.6462 29.4365C66.1777 28.9114 67.556 28.1676 68.7812 27.2049C70.0064 26.2423 70.9909 25.0608 71.7347 23.6606C72.4786 22.2167 72.8505 20.5758 72.8505 18.738ZM79.9391 18.6724C79.9391 21.5603 79.3703 24.1419 78.2326 26.4173C77.0949 28.6926 75.5853 30.6179 73.7038 32.1932C71.866 33.7684 69.7219 34.9717 67.2716 35.8031C64.865 36.6345 62.3708 37.0502 59.7892 37.0502C57.2075 37.0502 54.7134 36.6563 52.3068 35.8687C49.9002 35.0374 47.7561 33.8559 45.8746 32.3244C44.0368 30.7492 42.5491 28.8458 41.4114 26.6142C40.3175 24.3389 39.7705 21.7572 39.7705 18.8693C39.7705 15.9813 40.3393 13.4216 41.477 11.19C42.6147 8.95839 44.1243 7.07685 46.0058 5.54537C47.8874 4.01389 50.0314 2.85433 52.4381 2.06671C54.8447 1.27909 57.3169 0.885284 59.8548 0.885284C62.3927 0.885284 64.865 1.25722 67.2716 2.00108C69.7219 2.74494 71.866 3.86074 73.7038 5.34846C75.5853 6.83619 77.0949 8.69585 78.2326 10.9274C79.3703 13.159 79.9391 15.7407 79.9391 18.6724ZM99.5609 36H92.4067V2.00108H99.5609V23.7919L115.248 2.00108H123.911L112.688 17.294L117.676 25.6953C118.683 27.0955 119.667 27.9488 120.63 28.2551C121.592 28.5614 122.511 28.7145 123.386 28.7145H125.749V36H122.796C121.921 36 121.089 35.9562 120.302 35.8687C119.558 35.7375 118.792 35.4968 118.004 35.1467C117.26 34.7967 116.473 34.2716 115.641 33.5715C114.81 32.8276 113.891 31.8431 112.885 30.6179L108.159 22.873L99.5609 36ZM144.931 29.174H166.262V36H138.236V2.00108H165.015V8.76148H144.931V17.0315C146.418 16.1564 148.059 15.6094 149.853 15.3906C151.691 15.1718 153.594 15.0624 155.563 15.0624H160.552V21.8228H155.563C153.988 21.8228 152.675 21.8666 151.625 21.9541C150.619 21.9979 149.744 22.0854 149 22.2167C148.256 22.3479 147.578 22.5448 146.965 22.8074C146.353 23.0699 145.674 23.3981 144.931 23.7919V29.174ZM183.907 2.00108L204.451 25.6297V2.00108H211.211V36H204.451L185.548 13.881V36H178.787V7.05497L175.44 2.00108H183.907ZM233.64 18.9349C235.128 18.0598 236.791 17.5128 238.629 17.294C240.466 17.0752 242.37 16.9659 244.339 16.9659H247.358C248.977 16.9659 250.268 16.7252 251.231 16.2439C252.237 15.7188 252.74 14.5374 252.74 12.6996C252.74 11.8682 252.587 11.19 252.281 10.6649C251.974 10.1398 251.559 9.74601 251.034 9.48347C250.552 9.17717 249.983 8.98027 249.327 8.89275C248.715 8.80524 248.058 8.76148 247.358 8.76148H233.64V18.9349ZM226.946 36V2.00108H248.539C250.158 2.00108 251.646 2.26362 253.003 2.7887C254.403 3.27002 255.584 3.99201 256.547 4.95465C257.51 5.87354 258.253 7.01122 258.779 8.36767C259.347 9.68037 259.632 11.1462 259.632 12.7652C259.632 16.1782 258.538 18.8693 256.35 20.8383C254.206 22.7636 251.209 23.7263 247.358 23.7263H244.339C242.764 23.7263 241.451 23.77 240.401 23.8575C239.394 23.9013 238.497 23.9888 237.71 24.1201C236.966 24.2513 236.288 24.4482 235.675 24.7108C235.062 24.9733 234.384 25.3015 233.64 25.6953V36H226.946ZM287.356 24.7108L280.727 12.1089L272.654 27.6644C273.748 27.0955 275.432 26.461 277.708 25.7609C279.983 25.0608 282.893 24.7108 286.437 24.7108H287.356ZM275.017 1.21346H282.302L300.68 36H293.263L290.572 30.8805H286.503C284.402 30.8805 282.324 31.0555 280.267 31.4056C278.211 31.7556 276.329 32.1932 274.623 32.7183C272.96 33.1996 271.538 33.7247 270.356 34.2935C269.219 34.8186 268.519 35.2561 268.256 35.6062L268.059 36H260.971L277.248 5.47973L275.017 1.21346ZM318.006 8.76148V29.174H324.766C328.048 29.174 330.586 28.277 332.38 26.4829C334.174 24.6889 335.071 22.151 335.071 18.8693C335.071 15.5438 334.174 13.0278 332.38 11.3212C330.586 9.61474 328.048 8.76148 324.766 8.76148H318.006ZM303.697 2.00108H324.766C327.304 2.00108 329.623 2.37301 331.724 3.11687C333.868 3.81698 335.684 4.88902 337.171 6.33299C338.703 7.7332 339.884 9.48347 340.716 11.5838C341.547 13.6403 341.963 16.0251 341.963 18.738C341.963 21.3634 341.547 23.7481 340.716 25.8922C339.928 28.0363 338.768 29.8522 337.237 31.3399C335.749 32.8276 333.933 33.9872 331.789 34.8186C329.689 35.6062 327.348 36 324.766 36H310.917V8.76148H306.717L303.697 2.00108Z" fill="white"/>
</svg>
